<mxfile host="app.diagrams.net" modified="2023-02-02T05:46:19.963Z" agent="5.0 (Windows NT 10.0; Win64; x64) AppleWebKit/537.36 (KHTML, like Gecko) Chrome/109.0.0.0 Safari/537.36" etag="j-vXxcD2rWR0_X0nzwtv" version="20.8.13" type="github" pages="2">
  <diagram name="UML-class" id="dCM6QkRdeZ3WyoUlGl6J">
    <mxGraphModel dx="1395" dy="657" grid="1" gridSize="10" guides="1" tooltips="1" connect="1" arrows="1" fold="1" page="1" pageScale="1" pageWidth="850" pageHeight="1100" math="0" shadow="0">
      <root>
        <mxCell id="0" />
        <mxCell id="1" parent="0" />
        <mxCell id="lHi-mELWxNAjk7QKTjWc-1" value="Client" style="swimlane;fontStyle=1;align=center;verticalAlign=top;childLayout=stackLayout;horizontal=1;startSize=26;horizontalStack=0;resizeParent=1;resizeParentMax=0;resizeLast=0;collapsible=1;marginBottom=0;" vertex="1" parent="1">
          <mxGeometry x="60" y="160" width="260" height="350" as="geometry" />
        </mxCell>
        <mxCell id="lHi-mELWxNAjk7QKTjWc-2" value="- REPEAT_NUM: int = 11&#xa;- CLIENT_HOST_PORT_NUM: int = 23&#xa;- FILENAME: String&#xa;- MODE: String&#xa;" style="text;strokeColor=none;fillColor=none;align=left;verticalAlign=top;spacingLeft=4;spacingRight=4;overflow=hidden;rotatable=0;points=[[0,0.5],[1,0.5]];portConstraint=eastwest;fontStyle=4" vertex="1" parent="lHi-mELWxNAjk7QKTjWc-1">
          <mxGeometry y="26" width="260" height="64" as="geometry" />
        </mxCell>
        <mxCell id="lHi-mELWxNAjk7QKTjWc-5" value="- clientHostSocket: DatagramSocket&#xa;- clientHostPacket: DatagramPacket&#xa;- hostClientPacket: DatagramPacket&#xa;- data: byte[]&#xa;- sendCounter: int&#xa;- receiveCounter: int" style="text;strokeColor=none;fillColor=none;align=left;verticalAlign=top;spacingLeft=4;spacingRight=4;overflow=hidden;rotatable=0;points=[[0,0.5],[1,0.5]];portConstraint=eastwest;fontStyle=0" vertex="1" parent="lHi-mELWxNAjk7QKTjWc-1">
          <mxGeometry y="90" width="260" height="90" as="geometry" />
        </mxCell>
        <mxCell id="lHi-mELWxNAjk7QKTjWc-3" value="" style="line;strokeWidth=1;fillColor=none;align=left;verticalAlign=middle;spacingTop=-1;spacingLeft=3;spacingRight=3;rotatable=0;labelPosition=right;points=[];portConstraint=eastwest;strokeColor=inherit;" vertex="1" parent="lHi-mELWxNAjk7QKTjWc-1">
          <mxGeometry y="180" width="260" height="8" as="geometry" />
        </mxCell>
        <mxCell id="lHi-mELWxNAjk7QKTjWc-4" value="+ main(args: String[]): void" style="text;strokeColor=none;fillColor=none;align=left;verticalAlign=top;spacingLeft=4;spacingRight=4;overflow=hidden;rotatable=0;points=[[0,0.5],[1,0.5]];portConstraint=eastwest;fontStyle=4" vertex="1" parent="lHi-mELWxNAjk7QKTjWc-1">
          <mxGeometry y="188" width="260" height="26" as="geometry" />
        </mxCell>
        <mxCell id="lHi-mELWxNAjk7QKTjWc-6" value="+ Client()&#xa;- run(): void&#xa;- createSocket(): void&#xa;- sendHostPacket(): void&#xa;- receiveHostPacket(): void&#xa;- encodeMessage(): byte[]&#xa;- printPacketContent(packet: DatagramPacket, &#xa;                                direction: String, &#xa;                                counter: int): void" style="text;strokeColor=none;fillColor=none;align=left;verticalAlign=top;spacingLeft=4;spacingRight=4;overflow=hidden;rotatable=0;points=[[0,0.5],[1,0.5]];portConstraint=eastwest;" vertex="1" parent="lHi-mELWxNAjk7QKTjWc-1">
          <mxGeometry y="214" width="260" height="136" as="geometry" />
        </mxCell>
        <mxCell id="lHi-mELWxNAjk7QKTjWc-7" value="Host" style="swimlane;fontStyle=1;align=center;verticalAlign=top;childLayout=stackLayout;horizontal=1;startSize=26;horizontalStack=0;resizeParent=1;resizeParentMax=0;resizeLast=0;collapsible=1;marginBottom=0;" vertex="1" parent="1">
          <mxGeometry x="430" y="120" width="290" height="400" as="geometry" />
        </mxCell>
        <mxCell id="lHi-mELWxNAjk7QKTjWc-8" value="- CLIENT_HOST_PORT_NUM: int = 23&#xa;- HOST_SERVER_PORT_NUM: int = 69&#xa;" style="text;strokeColor=none;fillColor=none;align=left;verticalAlign=top;spacingLeft=4;spacingRight=4;overflow=hidden;rotatable=0;points=[[0,0.5],[1,0.5]];portConstraint=eastwest;fontStyle=4" vertex="1" parent="lHi-mELWxNAjk7QKTjWc-7">
          <mxGeometry y="26" width="290" height="34" as="geometry" />
        </mxCell>
        <mxCell id="lHi-mELWxNAjk7QKTjWc-9" value="- clientHostSocket: DatagramSocket&#xa;- hostServerSocket: DatagramSocket&#xa;- clientHostPacket: DatagramPacket&#xa;- hostServerPacket: DatagramPacket&#xa;- serverHostPacket: DatagramPacket&#xa;- hostClientPacket: DatagramPacket&#xa;- data: byte[]&#xa;- valid: boolean&#xa;- counter: int" style="text;strokeColor=none;fillColor=none;align=left;verticalAlign=top;spacingLeft=4;spacingRight=4;overflow=hidden;rotatable=0;points=[[0,0.5],[1,0.5]];portConstraint=eastwest;fontStyle=0" vertex="1" parent="lHi-mELWxNAjk7QKTjWc-7">
          <mxGeometry y="60" width="290" height="140" as="geometry" />
        </mxCell>
        <mxCell id="lHi-mELWxNAjk7QKTjWc-10" value="" style="line;strokeWidth=1;fillColor=none;align=left;verticalAlign=middle;spacingTop=-1;spacingLeft=3;spacingRight=3;rotatable=0;labelPosition=right;points=[];portConstraint=eastwest;strokeColor=inherit;" vertex="1" parent="lHi-mELWxNAjk7QKTjWc-7">
          <mxGeometry y="200" width="290" height="8" as="geometry" />
        </mxCell>
        <mxCell id="lHi-mELWxNAjk7QKTjWc-11" value="+ main(args: String[]): void" style="text;strokeColor=none;fillColor=none;align=left;verticalAlign=top;spacingLeft=4;spacingRight=4;overflow=hidden;rotatable=0;points=[[0,0.5],[1,0.5]];portConstraint=eastwest;fontStyle=4" vertex="1" parent="lHi-mELWxNAjk7QKTjWc-7">
          <mxGeometry y="208" width="290" height="26" as="geometry" />
        </mxCell>
        <mxCell id="lHi-mELWxNAjk7QKTjWc-12" value="+ Host()&#xa;- run(): void&#xa;- createSocket(): void&#xa;- receiveClientPacket(): void&#xa;- sendServerPacket(): void&#xa;- receiveServerPacket(): void&#xa;- sendClientPacket(): void&#xa;- verifyMessage(receivePacket: Datagram): boolean&#xa;- printPacketContent(packet: DatagramPacket, &#xa;                                direction: String, &#xa;                                counter: int): void" style="text;strokeColor=none;fillColor=none;align=left;verticalAlign=top;spacingLeft=4;spacingRight=4;overflow=hidden;rotatable=0;points=[[0,0.5],[1,0.5]];portConstraint=eastwest;" vertex="1" parent="lHi-mELWxNAjk7QKTjWc-7">
          <mxGeometry y="234" width="290" height="166" as="geometry" />
        </mxCell>
        <mxCell id="lHi-mELWxNAjk7QKTjWc-13" value="Server" style="swimlane;fontStyle=1;align=center;verticalAlign=top;childLayout=stackLayout;horizontal=1;startSize=26;horizontalStack=0;resizeParent=1;resizeParentMax=0;resizeLast=0;collapsible=1;marginBottom=0;" vertex="1" parent="1">
          <mxGeometry x="840" y="155" width="290" height="330" as="geometry" />
        </mxCell>
        <mxCell id="lHi-mELWxNAjk7QKTjWc-14" value="- HOST_SERVER_PORT_NUM: int = 69&#xa;" style="text;strokeColor=none;fillColor=none;align=left;verticalAlign=top;spacingLeft=4;spacingRight=4;overflow=hidden;rotatable=0;points=[[0,0.5],[1,0.5]];portConstraint=eastwest;fontStyle=4" vertex="1" parent="lHi-mELWxNAjk7QKTjWc-13">
          <mxGeometry y="26" width="290" height="24" as="geometry" />
        </mxCell>
        <mxCell id="lHi-mELWxNAjk7QKTjWc-15" value="- hostServerSocket: DatagramSocket&#xa;- hostServerPacket: DatagramPacket&#xa;- serverHostPacket: DatagramPacket&#xa;- data: byte[]&#xa;- valid: boolean&#xa;- counter: int" style="text;strokeColor=none;fillColor=none;align=left;verticalAlign=top;spacingLeft=4;spacingRight=4;overflow=hidden;rotatable=0;points=[[0,0.5],[1,0.5]];portConstraint=eastwest;fontStyle=0" vertex="1" parent="lHi-mELWxNAjk7QKTjWc-13">
          <mxGeometry y="50" width="290" height="90" as="geometry" />
        </mxCell>
        <mxCell id="lHi-mELWxNAjk7QKTjWc-16" value="" style="line;strokeWidth=1;fillColor=none;align=left;verticalAlign=middle;spacingTop=-1;spacingLeft=3;spacingRight=3;rotatable=0;labelPosition=right;points=[];portConstraint=eastwest;strokeColor=inherit;" vertex="1" parent="lHi-mELWxNAjk7QKTjWc-13">
          <mxGeometry y="140" width="290" height="8" as="geometry" />
        </mxCell>
        <mxCell id="lHi-mELWxNAjk7QKTjWc-17" value="+ main(args: String[]): void" style="text;strokeColor=none;fillColor=none;align=left;verticalAlign=top;spacingLeft=4;spacingRight=4;overflow=hidden;rotatable=0;points=[[0,0.5],[1,0.5]];portConstraint=eastwest;fontStyle=4" vertex="1" parent="lHi-mELWxNAjk7QKTjWc-13">
          <mxGeometry y="148" width="290" height="26" as="geometry" />
        </mxCell>
        <mxCell id="lHi-mELWxNAjk7QKTjWc-18" value="+ Server()&#xa;- run(): void&#xa;- createSocket(): void&#xa;- receivePacket(): void&#xa;- sendPacket(): void&#xa;- verifyMessage(receivePacket: Datagram): boolean&#xa;- createResponse(receivePacket: Datagram): byte[]&#xa;- printPacketContent(packet: DatagramPacket, &#xa;                                direction: String, &#xa;                                counter: int): void" style="text;strokeColor=none;fillColor=none;align=left;verticalAlign=top;spacingLeft=4;spacingRight=4;overflow=hidden;rotatable=0;points=[[0,0.5],[1,0.5]];portConstraint=eastwest;" vertex="1" parent="lHi-mELWxNAjk7QKTjWc-13">
          <mxGeometry y="174" width="290" height="156" as="geometry" />
        </mxCell>
        <mxCell id="lHi-mELWxNAjk7QKTjWc-19" value="«DatagramPacket»" style="endArrow=open;endSize=12;dashed=1;html=1;rounded=0;" edge="1" parent="1" source="lHi-mELWxNAjk7QKTjWc-5" target="lHi-mELWxNAjk7QKTjWc-9">
          <mxGeometry x="-0.0864" y="17" width="160" relative="1" as="geometry">
            <mxPoint x="630" y="430" as="sourcePoint" />
            <mxPoint x="790" y="430" as="targetPoint" />
            <mxPoint as="offset" />
          </mxGeometry>
        </mxCell>
        <mxCell id="lHi-mELWxNAjk7QKTjWc-23" value="«DatagramPacket»" style="endArrow=open;endSize=12;dashed=1;html=1;rounded=0;" edge="1" parent="1" source="lHi-mELWxNAjk7QKTjWc-9" target="lHi-mELWxNAjk7QKTjWc-15">
          <mxGeometry x="-0.0798" y="17" width="160" relative="1" as="geometry">
            <mxPoint x="709.9999999999998" y="261.76058823529405" as="sourcePoint" />
            <mxPoint x="860" y="259.9958823529411" as="targetPoint" />
            <mxPoint as="offset" />
          </mxGeometry>
        </mxCell>
        <mxCell id="lHi-mELWxNAjk7QKTjWc-24" value="«DatagramPacket»" style="endArrow=open;endSize=12;dashed=1;html=1;rounded=0;" edge="1" parent="1" source="lHi-mELWxNAjk7QKTjWc-18" target="lHi-mELWxNAjk7QKTjWc-12">
          <mxGeometry x="0.0182" y="15" width="160" relative="1" as="geometry">
            <mxPoint x="730" y="247.6219512195122" as="sourcePoint" />
            <mxPoint x="850" y="237.3780487804878" as="targetPoint" />
            <mxPoint as="offset" />
          </mxGeometry>
        </mxCell>
        <mxCell id="lHi-mELWxNAjk7QKTjWc-25" value="«DatagramPacket»" style="endArrow=open;endSize=12;dashed=1;html=1;rounded=0;" edge="1" parent="1" source="lHi-mELWxNAjk7QKTjWc-12" target="lHi-mELWxNAjk7QKTjWc-6">
          <mxGeometry x="-0.0798" y="17" width="160" relative="1" as="geometry">
            <mxPoint x="850" y="404.98780487804856" as="sourcePoint" />
            <mxPoint x="729.9999999999995" y="424.012195121951" as="targetPoint" />
            <mxPoint as="offset" />
          </mxGeometry>
        </mxCell>
      </root>
    </mxGraphModel>
  </diagram>
  <diagram id="jpfCJUJ7kFXtB_zzf5rm" name="UML-sequence">
    <mxGraphModel dx="2790" dy="1313" grid="1" gridSize="10" guides="1" tooltips="1" connect="1" arrows="1" fold="1" page="1" pageScale="1" pageWidth="850" pageHeight="1100" math="0" shadow="0">
      <root>
        <mxCell id="0" />
        <mxCell id="1" parent="0" />
        <mxCell id="8wa8UrGe-wMQwSdy52P2-2" value=":Client" style="html=1;" vertex="1" parent="1">
          <mxGeometry x="450" y="500" width="110" height="50" as="geometry" />
        </mxCell>
        <mxCell id="8wa8UrGe-wMQwSdy52P2-3" value="" style="endArrow=none;html=1;rounded=0;" edge="1" parent="1" source="8wa8UrGe-wMQwSdy52P2-4" target="8wa8UrGe-wMQwSdy52P2-2">
          <mxGeometry width="50" height="50" relative="1" as="geometry">
            <mxPoint x="505" y="750" as="sourcePoint" />
            <mxPoint x="1120" y="640" as="targetPoint" />
          </mxGeometry>
        </mxCell>
        <mxCell id="8wa8UrGe-wMQwSdy52P2-4" value="" style="rounded=0;whiteSpace=wrap;html=1;" vertex="1" parent="1">
          <mxGeometry x="495" y="580" width="20" height="1080" as="geometry" />
        </mxCell>
        <mxCell id="8wa8UrGe-wMQwSdy52P2-5" value="" style="endArrow=none;html=1;rounded=0;" edge="1" parent="1" source="8wa8UrGe-wMQwSdy52P2-4">
          <mxGeometry width="50" height="50" relative="1" as="geometry">
            <mxPoint x="1070" y="690" as="sourcePoint" />
            <mxPoint x="505" y="1700" as="targetPoint" />
          </mxGeometry>
        </mxCell>
        <mxCell id="8wa8UrGe-wMQwSdy52P2-6" value=":DatagramSocket" style="html=1;" vertex="1" parent="1">
          <mxGeometry x="760" y="750" width="110" height="50" as="geometry" />
        </mxCell>
        <mxCell id="8wa8UrGe-wMQwSdy52P2-7" value="" style="endArrow=none;html=1;rounded=0;" edge="1" parent="1" source="8wa8UrGe-wMQwSdy52P2-8" target="8wa8UrGe-wMQwSdy52P2-6">
          <mxGeometry width="50" height="50" relative="1" as="geometry">
            <mxPoint x="815" y="920" as="sourcePoint" />
            <mxPoint x="1430" y="810" as="targetPoint" />
          </mxGeometry>
        </mxCell>
        <mxCell id="8wa8UrGe-wMQwSdy52P2-8" value="" style="rounded=0;whiteSpace=wrap;html=1;" vertex="1" parent="1">
          <mxGeometry x="805" y="970" width="20" height="680" as="geometry" />
        </mxCell>
        <mxCell id="8wa8UrGe-wMQwSdy52P2-9" value="" style="endArrow=none;html=1;rounded=0;" edge="1" parent="1" source="8wa8UrGe-wMQwSdy52P2-8">
          <mxGeometry width="50" height="50" relative="1" as="geometry">
            <mxPoint x="1380" y="860" as="sourcePoint" />
            <mxPoint x="815" y="1700" as="targetPoint" />
          </mxGeometry>
        </mxCell>
        <mxCell id="8wa8UrGe-wMQwSdy52P2-10" value=":Server" style="html=1;" vertex="1" parent="1">
          <mxGeometry x="1960" y="500" width="110" height="50" as="geometry" />
        </mxCell>
        <mxCell id="8wa8UrGe-wMQwSdy52P2-11" value="" style="endArrow=none;html=1;rounded=0;" edge="1" parent="1" source="8wa8UrGe-wMQwSdy52P2-12" target="8wa8UrGe-wMQwSdy52P2-10">
          <mxGeometry width="50" height="50" relative="1" as="geometry">
            <mxPoint x="2015" y="670" as="sourcePoint" />
            <mxPoint x="2630" y="560" as="targetPoint" />
          </mxGeometry>
        </mxCell>
        <mxCell id="8wa8UrGe-wMQwSdy52P2-12" value="" style="rounded=0;whiteSpace=wrap;html=1;" vertex="1" parent="1">
          <mxGeometry x="2005" y="580" width="20" height="1080" as="geometry" />
        </mxCell>
        <mxCell id="8wa8UrGe-wMQwSdy52P2-13" value="" style="endArrow=none;html=1;rounded=0;" edge="1" parent="1" source="8wa8UrGe-wMQwSdy52P2-12">
          <mxGeometry width="50" height="50" relative="1" as="geometry">
            <mxPoint x="2580" y="610" as="sourcePoint" />
            <mxPoint x="2015" y="1700" as="targetPoint" />
          </mxGeometry>
        </mxCell>
        <mxCell id="8wa8UrGe-wMQwSdy52P2-14" value="main()" style="html=1;verticalAlign=bottom;endArrow=block;rounded=0;" edge="1" parent="1">
          <mxGeometry x="-0.2857" width="80" relative="1" as="geometry">
            <mxPoint x="515" y="619" as="sourcePoint" />
            <mxPoint x="515" y="639" as="targetPoint" />
            <Array as="points">
              <mxPoint x="540" y="619" />
              <mxPoint x="540" y="639" />
            </Array>
            <mxPoint as="offset" />
          </mxGeometry>
        </mxCell>
        <mxCell id="8wa8UrGe-wMQwSdy52P2-15" value="Client()" style="html=1;verticalAlign=bottom;endArrow=block;rounded=0;" edge="1" parent="1">
          <mxGeometry x="-0.2857" width="80" relative="1" as="geometry">
            <mxPoint x="515" y="659" as="sourcePoint" />
            <mxPoint x="515" y="679" as="targetPoint" />
            <Array as="points">
              <mxPoint x="540" y="659" />
              <mxPoint x="540" y="679" />
            </Array>
            <mxPoint as="offset" />
          </mxGeometry>
        </mxCell>
        <mxCell id="8wa8UrGe-wMQwSdy52P2-16" value="run()" style="html=1;verticalAlign=bottom;endArrow=block;rounded=0;" edge="1" parent="1">
          <mxGeometry x="-0.2789" width="80" relative="1" as="geometry">
            <mxPoint x="515" y="699" as="sourcePoint" />
            <mxPoint x="515" y="719" as="targetPoint" />
            <Array as="points">
              <mxPoint x="540" y="699" />
              <mxPoint x="540" y="719" />
            </Array>
            <mxPoint as="offset" />
          </mxGeometry>
        </mxCell>
        <mxCell id="8wa8UrGe-wMQwSdy52P2-17" value="createSocket()" style="html=1;verticalAlign=bottom;endArrow=block;rounded=0;" edge="1" parent="1">
          <mxGeometry x="-0.2857" y="20" width="80" relative="1" as="geometry">
            <mxPoint x="515" y="739" as="sourcePoint" />
            <mxPoint x="515" y="759" as="targetPoint" />
            <Array as="points">
              <mxPoint x="540" y="739" />
              <mxPoint x="540" y="759" />
            </Array>
            <mxPoint as="offset" />
          </mxGeometry>
        </mxCell>
        <mxCell id="8wa8UrGe-wMQwSdy52P2-18" value="sendHostPacket()" style="html=1;verticalAlign=bottom;endArrow=block;rounded=0;" edge="1" parent="1">
          <mxGeometry x="-0.2857" y="30" width="80" relative="1" as="geometry">
            <mxPoint x="515" y="829" as="sourcePoint" />
            <mxPoint x="515" y="849" as="targetPoint" />
            <Array as="points">
              <mxPoint x="540" y="829" />
              <mxPoint x="540" y="849" />
            </Array>
            <mxPoint as="offset" />
          </mxGeometry>
        </mxCell>
        <mxCell id="8wa8UrGe-wMQwSdy52P2-19" value="receiveHostPacket()" style="html=1;verticalAlign=bottom;endArrow=block;rounded=0;" edge="1" parent="1">
          <mxGeometry x="-0.2857" y="30" width="80" relative="1" as="geometry">
            <mxPoint x="515" y="1430" as="sourcePoint" />
            <mxPoint x="515" y="1450" as="targetPoint" />
            <Array as="points">
              <mxPoint x="540" y="1430" />
              <mxPoint x="540" y="1450" />
            </Array>
            <mxPoint as="offset" />
          </mxGeometry>
        </mxCell>
        <mxCell id="8wa8UrGe-wMQwSdy52P2-21" value="encodeMessage()" style="html=1;verticalAlign=bottom;endArrow=block;rounded=0;" edge="1" parent="1">
          <mxGeometry x="-0.2857" y="30" width="80" relative="1" as="geometry">
            <mxPoint x="515" y="869" as="sourcePoint" />
            <mxPoint x="515" y="889" as="targetPoint" />
            <Array as="points">
              <mxPoint x="540" y="869" />
              <mxPoint x="540" y="889" />
            </Array>
            <mxPoint as="offset" />
          </mxGeometry>
        </mxCell>
        <mxCell id="8wa8UrGe-wMQwSdy52P2-23" value=":Host" style="html=1;" vertex="1" parent="1">
          <mxGeometry x="1160" y="500" width="110" height="50" as="geometry" />
        </mxCell>
        <mxCell id="8wa8UrGe-wMQwSdy52P2-24" value="" style="endArrow=none;html=1;rounded=0;" edge="1" parent="1" source="8wa8UrGe-wMQwSdy52P2-25" target="8wa8UrGe-wMQwSdy52P2-23">
          <mxGeometry width="50" height="50" relative="1" as="geometry">
            <mxPoint x="1215" y="670" as="sourcePoint" />
            <mxPoint x="1830" y="560" as="targetPoint" />
          </mxGeometry>
        </mxCell>
        <mxCell id="8wa8UrGe-wMQwSdy52P2-25" value="" style="rounded=0;whiteSpace=wrap;html=1;" vertex="1" parent="1">
          <mxGeometry x="1205" y="580" width="20" height="1070" as="geometry" />
        </mxCell>
        <mxCell id="8wa8UrGe-wMQwSdy52P2-26" value="" style="endArrow=none;html=1;rounded=0;" edge="1" parent="1" source="8wa8UrGe-wMQwSdy52P2-25">
          <mxGeometry width="50" height="50" relative="1" as="geometry">
            <mxPoint x="1780" y="610" as="sourcePoint" />
            <mxPoint x="1215" y="1700" as="targetPoint" />
          </mxGeometry>
        </mxCell>
        <mxCell id="8wa8UrGe-wMQwSdy52P2-28" value="«create»" style="endArrow=open;endSize=12;dashed=1;html=1;rounded=0;entryX=-0.023;entryY=0.627;entryDx=0;entryDy=0;entryPerimeter=0;" edge="1" parent="1" target="8wa8UrGe-wMQwSdy52P2-6">
          <mxGeometry x="0.0303" y="10" width="160" relative="1" as="geometry">
            <mxPoint x="515" y="780" as="sourcePoint" />
            <mxPoint x="730" y="780" as="targetPoint" />
            <mxPoint as="offset" />
          </mxGeometry>
        </mxCell>
        <mxCell id="WFIimTjjh8RcCPIJt9Wq-1" value=":DatagramPacket" style="html=1;" vertex="1" parent="1">
          <mxGeometry x="650" y="880" width="110" height="50" as="geometry" />
        </mxCell>
        <mxCell id="WFIimTjjh8RcCPIJt9Wq-2" value="" style="endArrow=none;html=1;rounded=0;" edge="1" parent="1" source="WFIimTjjh8RcCPIJt9Wq-3" target="WFIimTjjh8RcCPIJt9Wq-1">
          <mxGeometry width="50" height="50" relative="1" as="geometry">
            <mxPoint x="705" y="1050" as="sourcePoint" />
            <mxPoint x="1320" y="940" as="targetPoint" />
          </mxGeometry>
        </mxCell>
        <mxCell id="WFIimTjjh8RcCPIJt9Wq-3" value="" style="rounded=0;whiteSpace=wrap;html=1;" vertex="1" parent="1">
          <mxGeometry x="695" y="970" width="20" height="20" as="geometry" />
        </mxCell>
        <mxCell id="WFIimTjjh8RcCPIJt9Wq-4" value="" style="endArrow=none;html=1;rounded=0;" edge="1" parent="1" source="WFIimTjjh8RcCPIJt9Wq-3">
          <mxGeometry width="50" height="50" relative="1" as="geometry">
            <mxPoint x="1270" y="990" as="sourcePoint" />
            <mxPoint x="705" y="1020" as="targetPoint" />
          </mxGeometry>
        </mxCell>
        <mxCell id="WFIimTjjh8RcCPIJt9Wq-5" value="«create»" style="endArrow=open;endSize=12;dashed=1;html=1;rounded=0;" edge="1" parent="1">
          <mxGeometry x="0.0303" y="10" width="160" relative="1" as="geometry">
            <mxPoint x="515" y="904.7099999999998" as="sourcePoint" />
            <mxPoint x="650" y="904.71" as="targetPoint" />
            <mxPoint as="offset" />
          </mxGeometry>
        </mxCell>
        <mxCell id="WFIimTjjh8RcCPIJt9Wq-7" value="send()" style="html=1;verticalAlign=bottom;endArrow=block;rounded=0;exitX=1;exitY=0.5;exitDx=0;exitDy=0;" edge="1" parent="1" source="WFIimTjjh8RcCPIJt9Wq-3">
          <mxGeometry width="80" relative="1" as="geometry">
            <mxPoint x="720" y="979.9200000000001" as="sourcePoint" />
            <mxPoint x="805" y="979.9200000000001" as="targetPoint" />
          </mxGeometry>
        </mxCell>
        <mxCell id="WFIimTjjh8RcCPIJt9Wq-8" value="printPacketContent()" style="html=1;verticalAlign=bottom;endArrow=block;rounded=0;" edge="1" parent="1">
          <mxGeometry x="-0.2857" y="30" width="80" relative="1" as="geometry">
            <mxPoint x="515" y="1000" as="sourcePoint" />
            <mxPoint x="515" y="1020" as="targetPoint" />
            <Array as="points">
              <mxPoint x="540" y="1000" />
              <mxPoint x="540" y="1020" />
            </Array>
            <mxPoint as="offset" />
          </mxGeometry>
        </mxCell>
        <mxCell id="WFIimTjjh8RcCPIJt9Wq-9" value="receive()" style="html=1;verticalAlign=bottom;endArrow=block;rounded=0;" edge="1" parent="1">
          <mxGeometry x="-0.0037" width="80" relative="1" as="geometry">
            <mxPoint x="970" y="979.74" as="sourcePoint" />
            <mxPoint x="1075" y="979.74" as="targetPoint" />
            <mxPoint as="offset" />
          </mxGeometry>
        </mxCell>
        <mxCell id="WFIimTjjh8RcCPIJt9Wq-10" value=":DatagramSocket" style="html=1;" vertex="1" parent="1">
          <mxGeometry x="910" y="750" width="110" height="50" as="geometry" />
        </mxCell>
        <mxCell id="WFIimTjjh8RcCPIJt9Wq-11" value="" style="rounded=0;whiteSpace=wrap;html=1;" vertex="1" parent="1">
          <mxGeometry x="955" y="970" width="20" height="670" as="geometry" />
        </mxCell>
        <mxCell id="WFIimTjjh8RcCPIJt9Wq-12" value="" style="endArrow=none;html=1;rounded=0;" edge="1" parent="1" source="WFIimTjjh8RcCPIJt9Wq-11">
          <mxGeometry width="50" height="50" relative="1" as="geometry">
            <mxPoint x="1530" y="860" as="sourcePoint" />
            <mxPoint x="965" y="1700" as="targetPoint" />
          </mxGeometry>
        </mxCell>
        <mxCell id="WFIimTjjh8RcCPIJt9Wq-13" value="" style="endArrow=none;html=1;rounded=0;" edge="1" parent="1" source="WFIimTjjh8RcCPIJt9Wq-11" target="WFIimTjjh8RcCPIJt9Wq-10">
          <mxGeometry width="50" height="50" relative="1" as="geometry">
            <mxPoint x="845" y="850" as="sourcePoint" />
            <mxPoint x="845" y="810" as="targetPoint" />
          </mxGeometry>
        </mxCell>
        <mxCell id="WFIimTjjh8RcCPIJt9Wq-14" value=":DatagramPacket" style="html=1;" vertex="1" parent="1">
          <mxGeometry x="1030" y="879" width="110" height="50" as="geometry" />
        </mxCell>
        <mxCell id="WFIimTjjh8RcCPIJt9Wq-15" value="" style="endArrow=none;html=1;rounded=0;" edge="1" parent="1" source="WFIimTjjh8RcCPIJt9Wq-16" target="WFIimTjjh8RcCPIJt9Wq-14">
          <mxGeometry width="50" height="50" relative="1" as="geometry">
            <mxPoint x="1085" y="1049" as="sourcePoint" />
            <mxPoint x="1700" y="939" as="targetPoint" />
          </mxGeometry>
        </mxCell>
        <mxCell id="WFIimTjjh8RcCPIJt9Wq-16" value="" style="rounded=0;whiteSpace=wrap;html=1;" vertex="1" parent="1">
          <mxGeometry x="1075" y="969" width="20" height="21" as="geometry" />
        </mxCell>
        <mxCell id="WFIimTjjh8RcCPIJt9Wq-17" value="" style="endArrow=none;html=1;rounded=0;" edge="1" parent="1" source="WFIimTjjh8RcCPIJt9Wq-16">
          <mxGeometry width="50" height="50" relative="1" as="geometry">
            <mxPoint x="1650" y="989" as="sourcePoint" />
            <mxPoint x="1085" y="1020" as="targetPoint" />
          </mxGeometry>
        </mxCell>
        <mxCell id="WFIimTjjh8RcCPIJt9Wq-18" value="receive()" style="html=1;verticalAlign=bottom;endArrow=block;rounded=0;" edge="1" parent="1">
          <mxGeometry width="80" relative="1" as="geometry">
            <mxPoint x="1095" y="979" as="sourcePoint" />
            <mxPoint x="1200" y="979" as="targetPoint" />
          </mxGeometry>
        </mxCell>
        <mxCell id="WFIimTjjh8RcCPIJt9Wq-20" value="«send/receive»&lt;br&gt;Port 23" style="endArrow=open;endSize=12;dashed=1;html=1;rounded=0;" edge="1" parent="1">
          <mxGeometry x="0.04" y="20" width="160" relative="1" as="geometry">
            <mxPoint x="825" y="980" as="sourcePoint" />
            <mxPoint x="950" y="980" as="targetPoint" />
            <mxPoint as="offset" />
          </mxGeometry>
        </mxCell>
        <mxCell id="WFIimTjjh8RcCPIJt9Wq-21" value="«send/receive»&lt;br&gt;Port 23" style="endArrow=open;endSize=12;dashed=1;html=1;rounded=0;" edge="1" parent="1">
          <mxGeometry x="0.04" y="20" width="160" relative="1" as="geometry">
            <mxPoint x="950" y="1539.76" as="sourcePoint" />
            <mxPoint x="825" y="1539.76" as="targetPoint" />
            <mxPoint as="offset" />
          </mxGeometry>
        </mxCell>
        <mxCell id="WFIimTjjh8RcCPIJt9Wq-22" value="" style="rounded=0;whiteSpace=wrap;html=1;" vertex="1" parent="1">
          <mxGeometry x="695" y="1530" width="20" height="20" as="geometry" />
        </mxCell>
        <mxCell id="WFIimTjjh8RcCPIJt9Wq-23" value="" style="endArrow=none;html=1;rounded=0;" edge="1" parent="1" source="WFIimTjjh8RcCPIJt9Wq-22">
          <mxGeometry width="50" height="50" relative="1" as="geometry">
            <mxPoint x="704.71" y="1465" as="sourcePoint" />
            <mxPoint x="705" y="1590" as="targetPoint" />
          </mxGeometry>
        </mxCell>
        <mxCell id="WFIimTjjh8RcCPIJt9Wq-24" value="receive()" style="html=1;verticalAlign=bottom;endArrow=block;rounded=0;" edge="1" parent="1">
          <mxGeometry x="0.0032" width="80" relative="1" as="geometry">
            <mxPoint x="805" y="1540.06" as="sourcePoint" />
            <mxPoint x="720" y="1539.8200000000002" as="targetPoint" />
            <mxPoint as="offset" />
          </mxGeometry>
        </mxCell>
        <mxCell id="WFIimTjjh8RcCPIJt9Wq-26" value="«receive»" style="endArrow=open;endSize=12;dashed=1;html=1;rounded=0;" edge="1" parent="1">
          <mxGeometry x="0.0303" y="10" width="160" relative="1" as="geometry">
            <mxPoint x="690" y="1539.76" as="sourcePoint" />
            <mxPoint x="515" y="1539.76" as="targetPoint" />
            <mxPoint as="offset" />
          </mxGeometry>
        </mxCell>
        <mxCell id="WFIimTjjh8RcCPIJt9Wq-27" value="printPacketContent()" style="html=1;verticalAlign=bottom;endArrow=block;rounded=0;" edge="1" parent="1">
          <mxGeometry x="-0.2857" y="30" width="80" relative="1" as="geometry">
            <mxPoint x="515" y="1580" as="sourcePoint" />
            <mxPoint x="515" y="1600" as="targetPoint" />
            <Array as="points">
              <mxPoint x="540" y="1580" />
              <mxPoint x="540" y="1600" />
            </Array>
            <mxPoint as="offset" />
          </mxGeometry>
        </mxCell>
        <mxCell id="WFIimTjjh8RcCPIJt9Wq-28" value="loop" style="shape=umlFrame;whiteSpace=wrap;html=1;" vertex="1" parent="1">
          <mxGeometry x="400" y="810" width="390" height="230" as="geometry" />
        </mxCell>
        <mxCell id="WFIimTjjh8RcCPIJt9Wq-31" value="send()" style="html=1;verticalAlign=bottom;endArrow=block;rounded=0;" edge="1" parent="1">
          <mxGeometry width="80" relative="1" as="geometry">
            <mxPoint x="520" y="980" as="sourcePoint" />
            <mxPoint x="695" y="979.6599999999999" as="targetPoint" />
          </mxGeometry>
        </mxCell>
        <mxCell id="WFIimTjjh8RcCPIJt9Wq-34" value="[while (n &amp;lt; 11)]" style="text;html=1;strokeColor=none;fillColor=none;align=center;verticalAlign=middle;whiteSpace=wrap;rounded=0;" vertex="1" parent="1">
          <mxGeometry x="405" y="835" width="90" height="30" as="geometry" />
        </mxCell>
        <mxCell id="WFIimTjjh8RcCPIJt9Wq-35" value="loop" style="shape=umlFrame;whiteSpace=wrap;html=1;" vertex="1" parent="1">
          <mxGeometry x="400" y="1410" width="390" height="200" as="geometry" />
        </mxCell>
        <mxCell id="WFIimTjjh8RcCPIJt9Wq-36" value="[while (n &amp;lt; 11)]" style="text;html=1;strokeColor=none;fillColor=none;align=center;verticalAlign=middle;whiteSpace=wrap;rounded=0;" vertex="1" parent="1">
          <mxGeometry x="405" y="1435" width="90" height="30" as="geometry" />
        </mxCell>
        <mxCell id="WFIimTjjh8RcCPIJt9Wq-42" value=":DatagramPacket" style="html=1;" vertex="1" parent="1">
          <mxGeometry x="650" y="1440" width="110" height="50" as="geometry" />
        </mxCell>
        <mxCell id="WFIimTjjh8RcCPIJt9Wq-45" value="«create»" style="endArrow=open;endSize=12;dashed=1;html=1;rounded=0;" edge="1" parent="1">
          <mxGeometry x="0.0303" y="10" width="160" relative="1" as="geometry">
            <mxPoint x="515" y="1464.7099999999998" as="sourcePoint" />
            <mxPoint x="650" y="1464.71" as="targetPoint" />
            <mxPoint as="offset" />
          </mxGeometry>
        </mxCell>
        <mxCell id="WFIimTjjh8RcCPIJt9Wq-46" value="" style="endArrow=none;html=1;rounded=0;" edge="1" parent="1" source="WFIimTjjh8RcCPIJt9Wq-22">
          <mxGeometry width="50" height="50" relative="1" as="geometry">
            <mxPoint x="704.7599999999998" y="1530" as="sourcePoint" />
            <mxPoint x="704.7600000000002" y="1490" as="targetPoint" />
          </mxGeometry>
        </mxCell>
        <mxCell id="WFIimTjjh8RcCPIJt9Wq-48" value="close()" style="html=1;verticalAlign=bottom;endArrow=block;rounded=0;" edge="1" parent="1">
          <mxGeometry width="80" relative="1" as="geometry">
            <mxPoint x="515" y="1640" as="sourcePoint" />
            <mxPoint x="800" y="1640" as="targetPoint" />
          </mxGeometry>
        </mxCell>
        <mxCell id="WFIimTjjh8RcCPIJt9Wq-54" value="main()" style="html=1;verticalAlign=bottom;endArrow=block;rounded=0;" edge="1" parent="1">
          <mxGeometry x="-0.2857" width="80" relative="1" as="geometry">
            <mxPoint x="1225" y="620" as="sourcePoint" />
            <mxPoint x="1225" y="640" as="targetPoint" />
            <Array as="points">
              <mxPoint x="1250" y="620" />
              <mxPoint x="1250" y="640" />
            </Array>
            <mxPoint as="offset" />
          </mxGeometry>
        </mxCell>
        <mxCell id="WFIimTjjh8RcCPIJt9Wq-55" value="Host()" style="html=1;verticalAlign=bottom;endArrow=block;rounded=0;" edge="1" parent="1">
          <mxGeometry x="-0.2857" width="80" relative="1" as="geometry">
            <mxPoint x="1225" y="660" as="sourcePoint" />
            <mxPoint x="1225" y="680" as="targetPoint" />
            <Array as="points">
              <mxPoint x="1250" y="660" />
              <mxPoint x="1250" y="680" />
            </Array>
            <mxPoint as="offset" />
          </mxGeometry>
        </mxCell>
        <mxCell id="WFIimTjjh8RcCPIJt9Wq-56" value="run()" style="html=1;verticalAlign=bottom;endArrow=block;rounded=0;" edge="1" parent="1">
          <mxGeometry x="-0.2789" width="80" relative="1" as="geometry">
            <mxPoint x="1225" y="700" as="sourcePoint" />
            <mxPoint x="1225" y="720" as="targetPoint" />
            <Array as="points">
              <mxPoint x="1250" y="700" />
              <mxPoint x="1250" y="720" />
            </Array>
            <mxPoint as="offset" />
          </mxGeometry>
        </mxCell>
        <mxCell id="WFIimTjjh8RcCPIJt9Wq-57" value="createSocket()" style="html=1;verticalAlign=bottom;endArrow=block;rounded=0;" edge="1" parent="1">
          <mxGeometry x="-0.2857" y="20" width="80" relative="1" as="geometry">
            <mxPoint x="1225" y="740" as="sourcePoint" />
            <mxPoint x="1225" y="760" as="targetPoint" />
            <Array as="points">
              <mxPoint x="1250" y="740" />
              <mxPoint x="1250" y="760" />
            </Array>
            <mxPoint as="offset" />
          </mxGeometry>
        </mxCell>
        <mxCell id="WFIimTjjh8RcCPIJt9Wq-58" value="«create»" style="endArrow=open;endSize=12;dashed=1;html=1;rounded=0;" edge="1" parent="1">
          <mxGeometry x="0.0303" y="10" width="160" relative="1" as="geometry">
            <mxPoint x="1206.2399999999998" y="781.3500000000001" as="sourcePoint" />
            <mxPoint x="1020" y="780" as="targetPoint" />
            <mxPoint as="offset" />
          </mxGeometry>
        </mxCell>
        <mxCell id="WFIimTjjh8RcCPIJt9Wq-59" value="receiveClientPacket()" style="html=1;verticalAlign=bottom;endArrow=block;rounded=0;" edge="1" parent="1">
          <mxGeometry x="-0.2857" y="40" width="80" relative="1" as="geometry">
            <mxPoint x="1225" y="859" as="sourcePoint" />
            <mxPoint x="1225" y="879" as="targetPoint" />
            <Array as="points">
              <mxPoint x="1250" y="859" />
              <mxPoint x="1250" y="879" />
            </Array>
            <mxPoint as="offset" />
          </mxGeometry>
        </mxCell>
        <mxCell id="WFIimTjjh8RcCPIJt9Wq-60" value="sendServerPacket()" style="html=1;verticalAlign=bottom;endArrow=block;rounded=0;" edge="1" parent="1">
          <mxGeometry x="-0.2857" y="40" width="80" relative="1" as="geometry">
            <mxPoint x="1225" y="1050" as="sourcePoint" />
            <mxPoint x="1225" y="1070" as="targetPoint" />
            <Array as="points">
              <mxPoint x="1250" y="1050" />
              <mxPoint x="1250" y="1070" />
            </Array>
            <mxPoint y="-4" as="offset" />
          </mxGeometry>
        </mxCell>
        <mxCell id="WFIimTjjh8RcCPIJt9Wq-61" value="receiveServerPacket()" style="html=1;verticalAlign=bottom;endArrow=block;rounded=0;" edge="1" parent="1">
          <mxGeometry x="-0.2857" y="40" width="80" relative="1" as="geometry">
            <mxPoint x="1225" y="1250" as="sourcePoint" />
            <mxPoint x="1225" y="1270" as="targetPoint" />
            <Array as="points">
              <mxPoint x="1250" y="1250" />
              <mxPoint x="1250" y="1270" />
            </Array>
            <mxPoint as="offset" />
          </mxGeometry>
        </mxCell>
        <mxCell id="WFIimTjjh8RcCPIJt9Wq-62" value="sentClientPacket()" style="html=1;verticalAlign=bottom;endArrow=block;rounded=0;" edge="1" parent="1">
          <mxGeometry x="-0.2857" y="40" width="80" relative="1" as="geometry">
            <mxPoint x="1225" y="1440" as="sourcePoint" />
            <mxPoint x="1225" y="1460" as="targetPoint" />
            <Array as="points">
              <mxPoint x="1250" y="1440" />
              <mxPoint x="1250" y="1460" />
            </Array>
            <mxPoint as="offset" />
          </mxGeometry>
        </mxCell>
        <mxCell id="WFIimTjjh8RcCPIJt9Wq-63" value=":DatagramSocket" style="html=1;" vertex="1" parent="1">
          <mxGeometry x="1470" y="750" width="110" height="50" as="geometry" />
        </mxCell>
        <mxCell id="WFIimTjjh8RcCPIJt9Wq-64" value="" style="rounded=0;whiteSpace=wrap;html=1;" vertex="1" parent="1">
          <mxGeometry x="1515" y="1150" width="20" height="490" as="geometry" />
        </mxCell>
        <mxCell id="WFIimTjjh8RcCPIJt9Wq-65" value="" style="endArrow=none;html=1;rounded=0;" edge="1" parent="1" source="WFIimTjjh8RcCPIJt9Wq-64">
          <mxGeometry width="50" height="50" relative="1" as="geometry">
            <mxPoint x="2090" y="860" as="sourcePoint" />
            <mxPoint x="1525" y="1700" as="targetPoint" />
          </mxGeometry>
        </mxCell>
        <mxCell id="WFIimTjjh8RcCPIJt9Wq-66" value="" style="endArrow=none;html=1;rounded=0;" edge="1" parent="1" source="WFIimTjjh8RcCPIJt9Wq-64" target="WFIimTjjh8RcCPIJt9Wq-63">
          <mxGeometry width="50" height="50" relative="1" as="geometry">
            <mxPoint x="1405" y="850" as="sourcePoint" />
            <mxPoint x="1405" y="810" as="targetPoint" />
          </mxGeometry>
        </mxCell>
        <mxCell id="WFIimTjjh8RcCPIJt9Wq-67" value="«create»" style="endArrow=open;endSize=12;dashed=1;html=1;rounded=0;" edge="1" parent="1">
          <mxGeometry x="0.0303" y="10" width="160" relative="1" as="geometry">
            <mxPoint x="1225" y="780" as="sourcePoint" />
            <mxPoint x="1460" y="781" as="targetPoint" />
            <mxPoint as="offset" />
          </mxGeometry>
        </mxCell>
        <mxCell id="WFIimTjjh8RcCPIJt9Wq-68" value="«create»" style="endArrow=open;endSize=12;dashed=1;html=1;rounded=0;" edge="1" parent="1">
          <mxGeometry x="0.0303" y="10" width="160" relative="1" as="geometry">
            <mxPoint x="1206.2399999999998" y="901.3500000000001" as="sourcePoint" />
            <mxPoint x="1140" y="901" as="targetPoint" />
            <mxPoint as="offset" />
          </mxGeometry>
        </mxCell>
        <mxCell id="WFIimTjjh8RcCPIJt9Wq-69" value="printPacketContent()" style="html=1;verticalAlign=bottom;endArrow=block;rounded=0;" edge="1" parent="1">
          <mxGeometry x="-0.2857" y="40" width="80" relative="1" as="geometry">
            <mxPoint x="1225" y="980" as="sourcePoint" />
            <mxPoint x="1225" y="1000" as="targetPoint" />
            <Array as="points">
              <mxPoint x="1250" y="980" />
              <mxPoint x="1250" y="1000" />
            </Array>
            <mxPoint y="-4" as="offset" />
          </mxGeometry>
        </mxCell>
        <mxCell id="WFIimTjjh8RcCPIJt9Wq-70" value=":DatagramPacket" style="html=1;" vertex="1" parent="1">
          <mxGeometry x="1320" y="1064.5" width="110" height="50" as="geometry" />
        </mxCell>
        <mxCell id="WFIimTjjh8RcCPIJt9Wq-71" value="" style="endArrow=none;html=1;rounded=0;" edge="1" parent="1" source="WFIimTjjh8RcCPIJt9Wq-72" target="WFIimTjjh8RcCPIJt9Wq-70">
          <mxGeometry width="50" height="50" relative="1" as="geometry">
            <mxPoint x="1375" y="1244.5" as="sourcePoint" />
            <mxPoint x="1990" y="1134.5" as="targetPoint" />
          </mxGeometry>
        </mxCell>
        <mxCell id="WFIimTjjh8RcCPIJt9Wq-72" value="" style="rounded=0;whiteSpace=wrap;html=1;" vertex="1" parent="1">
          <mxGeometry x="1365" y="1159.5" width="20" height="21" as="geometry" />
        </mxCell>
        <mxCell id="WFIimTjjh8RcCPIJt9Wq-73" value="" style="endArrow=none;html=1;rounded=0;" edge="1" parent="1" source="WFIimTjjh8RcCPIJt9Wq-72">
          <mxGeometry width="50" height="50" relative="1" as="geometry">
            <mxPoint x="1940" y="1184.5" as="sourcePoint" />
            <mxPoint x="1375" y="1215.5" as="targetPoint" />
          </mxGeometry>
        </mxCell>
        <mxCell id="WFIimTjjh8RcCPIJt9Wq-74" value="«create»" style="endArrow=open;endSize=12;dashed=1;html=1;rounded=0;" edge="1" parent="1">
          <mxGeometry x="0.0303" y="10" width="160" relative="1" as="geometry">
            <mxPoint x="1225" y="1090" as="sourcePoint" />
            <mxPoint x="1320" y="1091" as="targetPoint" />
            <mxPoint as="offset" />
          </mxGeometry>
        </mxCell>
        <mxCell id="WFIimTjjh8RcCPIJt9Wq-75" value="send()" style="html=1;verticalAlign=bottom;endArrow=block;rounded=0;" edge="1" parent="1">
          <mxGeometry x="-0.0037" width="80" relative="1" as="geometry">
            <mxPoint x="1225" y="1169.58" as="sourcePoint" />
            <mxPoint x="1360" y="1170" as="targetPoint" />
            <mxPoint as="offset" />
          </mxGeometry>
        </mxCell>
        <mxCell id="WFIimTjjh8RcCPIJt9Wq-80" value="send()" style="html=1;verticalAlign=bottom;endArrow=block;rounded=0;" edge="1" parent="1">
          <mxGeometry x="-0.0037" width="80" relative="1" as="geometry">
            <mxPoint x="1385" y="1169.7599999999998" as="sourcePoint" />
            <mxPoint x="1510" y="1170" as="targetPoint" />
            <mxPoint as="offset" />
          </mxGeometry>
        </mxCell>
        <mxCell id="WFIimTjjh8RcCPIJt9Wq-82" value="printPacketContent()" style="html=1;verticalAlign=bottom;endArrow=block;rounded=0;" edge="1" parent="1">
          <mxGeometry x="-0.2857" y="40" width="80" relative="1" as="geometry">
            <mxPoint x="1225" y="1200" as="sourcePoint" />
            <mxPoint x="1225" y="1220" as="targetPoint" />
            <Array as="points">
              <mxPoint x="1250" y="1200" />
              <mxPoint x="1250" y="1220" />
            </Array>
            <mxPoint y="-4" as="offset" />
          </mxGeometry>
        </mxCell>
        <mxCell id="WFIimTjjh8RcCPIJt9Wq-83" value=":DatagramPacket" style="html=1;" vertex="1" parent="1">
          <mxGeometry x="1320" y="1260" width="110" height="50" as="geometry" />
        </mxCell>
        <mxCell id="WFIimTjjh8RcCPIJt9Wq-84" value="" style="endArrow=none;html=1;rounded=0;exitX=0.5;exitY=0;exitDx=0;exitDy=0;" edge="1" parent="1" target="WFIimTjjh8RcCPIJt9Wq-83" source="WFIimTjjh8RcCPIJt9Wq-87">
          <mxGeometry width="50" height="50" relative="1" as="geometry">
            <mxPoint x="1375" y="1355" as="sourcePoint" />
            <mxPoint x="1990" y="1330" as="targetPoint" />
          </mxGeometry>
        </mxCell>
        <mxCell id="WFIimTjjh8RcCPIJt9Wq-85" value="" style="endArrow=none;html=1;rounded=0;exitX=0.5;exitY=1;exitDx=0;exitDy=0;" edge="1" parent="1" source="WFIimTjjh8RcCPIJt9Wq-87">
          <mxGeometry width="50" height="50" relative="1" as="geometry">
            <mxPoint x="1375" y="1376" as="sourcePoint" />
            <mxPoint x="1375" y="1411" as="targetPoint" />
          </mxGeometry>
        </mxCell>
        <mxCell id="WFIimTjjh8RcCPIJt9Wq-86" value="«create»" style="endArrow=open;endSize=12;dashed=1;html=1;rounded=0;" edge="1" parent="1">
          <mxGeometry x="0.0303" y="10" width="160" relative="1" as="geometry">
            <mxPoint x="1225" y="1290" as="sourcePoint" />
            <mxPoint x="1320" y="1291" as="targetPoint" />
            <mxPoint as="offset" />
          </mxGeometry>
        </mxCell>
        <mxCell id="WFIimTjjh8RcCPIJt9Wq-87" value="" style="rounded=0;whiteSpace=wrap;html=1;" vertex="1" parent="1">
          <mxGeometry x="1365" y="1350" width="20" height="21" as="geometry" />
        </mxCell>
        <mxCell id="WFIimTjjh8RcCPIJt9Wq-88" value="receive()" style="html=1;verticalAlign=bottom;endArrow=block;rounded=0;" edge="1" parent="1">
          <mxGeometry x="-0.0037" width="80" relative="1" as="geometry">
            <mxPoint x="1360" y="1360.71" as="sourcePoint" />
            <mxPoint x="1225" y="1360.29" as="targetPoint" />
            <mxPoint as="offset" />
          </mxGeometry>
        </mxCell>
        <mxCell id="WFIimTjjh8RcCPIJt9Wq-89" value="receive()" style="html=1;verticalAlign=bottom;endArrow=block;rounded=0;" edge="1" parent="1">
          <mxGeometry x="-0.0037" width="80" relative="1" as="geometry">
            <mxPoint x="1510" y="1360" as="sourcePoint" />
            <mxPoint x="1385" y="1360.29" as="targetPoint" />
            <mxPoint as="offset" />
          </mxGeometry>
        </mxCell>
        <mxCell id="WFIimTjjh8RcCPIJt9Wq-90" value="printPacketContent()" style="html=1;verticalAlign=bottom;endArrow=block;rounded=0;" edge="1" parent="1">
          <mxGeometry x="-0.2857" y="40" width="80" relative="1" as="geometry">
            <mxPoint x="1225" y="1390" as="sourcePoint" />
            <mxPoint x="1225" y="1410" as="targetPoint" />
            <Array as="points">
              <mxPoint x="1250" y="1390" />
              <mxPoint x="1250" y="1410" />
            </Array>
            <mxPoint y="-4" as="offset" />
          </mxGeometry>
        </mxCell>
        <mxCell id="WFIimTjjh8RcCPIJt9Wq-91" value=":DatagramPacket" style="html=1;" vertex="1" parent="1">
          <mxGeometry x="1030" y="1440" width="110" height="50" as="geometry" />
        </mxCell>
        <mxCell id="WFIimTjjh8RcCPIJt9Wq-92" value="" style="endArrow=none;html=1;rounded=0;" edge="1" parent="1" source="WFIimTjjh8RcCPIJt9Wq-93" target="WFIimTjjh8RcCPIJt9Wq-91">
          <mxGeometry width="50" height="50" relative="1" as="geometry">
            <mxPoint x="1085" y="1610" as="sourcePoint" />
            <mxPoint x="1700" y="1500" as="targetPoint" />
          </mxGeometry>
        </mxCell>
        <mxCell id="WFIimTjjh8RcCPIJt9Wq-93" value="" style="rounded=0;whiteSpace=wrap;html=1;" vertex="1" parent="1">
          <mxGeometry x="1075" y="1530" width="20" height="21" as="geometry" />
        </mxCell>
        <mxCell id="WFIimTjjh8RcCPIJt9Wq-94" value="" style="endArrow=none;html=1;rounded=0;" edge="1" parent="1" source="WFIimTjjh8RcCPIJt9Wq-93">
          <mxGeometry width="50" height="50" relative="1" as="geometry">
            <mxPoint x="1650" y="1550" as="sourcePoint" />
            <mxPoint x="1084.9999999999998" y="1581" as="targetPoint" />
          </mxGeometry>
        </mxCell>
        <mxCell id="WFIimTjjh8RcCPIJt9Wq-95" value="send()" style="html=1;verticalAlign=bottom;endArrow=block;rounded=0;" edge="1" parent="1">
          <mxGeometry width="80" relative="1" as="geometry">
            <mxPoint x="1199.9999999999998" y="1540" as="sourcePoint" />
            <mxPoint x="1094.9999999999998" y="1540" as="targetPoint" />
          </mxGeometry>
        </mxCell>
        <mxCell id="WFIimTjjh8RcCPIJt9Wq-96" value="«create»" style="endArrow=open;endSize=12;dashed=1;html=1;rounded=0;" edge="1" parent="1">
          <mxGeometry x="0.0303" y="10" width="160" relative="1" as="geometry">
            <mxPoint x="1206.2399999999998" y="1462.3500000000001" as="sourcePoint" />
            <mxPoint x="1139.9999999999998" y="1462" as="targetPoint" />
            <mxPoint as="offset" />
          </mxGeometry>
        </mxCell>
        <mxCell id="WFIimTjjh8RcCPIJt9Wq-97" value="send()" style="html=1;verticalAlign=bottom;endArrow=block;rounded=0;" edge="1" parent="1">
          <mxGeometry width="80" relative="1" as="geometry">
            <mxPoint x="1074.9999999999998" y="1540.16" as="sourcePoint" />
            <mxPoint x="980" y="1540" as="targetPoint" />
          </mxGeometry>
        </mxCell>
        <mxCell id="WFIimTjjh8RcCPIJt9Wq-98" value="printPacketContent()" style="html=1;verticalAlign=bottom;endArrow=block;rounded=0;" edge="1" parent="1">
          <mxGeometry x="-0.2857" y="40" width="80" relative="1" as="geometry">
            <mxPoint x="1225" y="1550" as="sourcePoint" />
            <mxPoint x="1225" y="1570" as="targetPoint" />
            <Array as="points">
              <mxPoint x="1250" y="1550" />
              <mxPoint x="1250" y="1570" />
            </Array>
            <mxPoint y="-4" as="offset" />
          </mxGeometry>
        </mxCell>
        <mxCell id="WFIimTjjh8RcCPIJt9Wq-99" value="verifyMessage()" style="html=1;verticalAlign=bottom;endArrow=block;rounded=0;" edge="1" parent="1">
          <mxGeometry x="-0.2857" y="40" width="80" relative="1" as="geometry">
            <mxPoint x="1225" y="1480" as="sourcePoint" />
            <mxPoint x="1225" y="1500" as="targetPoint" />
            <Array as="points">
              <mxPoint x="1250" y="1480" />
              <mxPoint x="1250" y="1500" />
            </Array>
            <mxPoint as="offset" />
          </mxGeometry>
        </mxCell>
        <mxCell id="WFIimTjjh8RcCPIJt9Wq-100" value="close()" style="html=1;verticalAlign=bottom;endArrow=block;rounded=0;" edge="1" parent="1">
          <mxGeometry width="80" relative="1" as="geometry">
            <mxPoint x="1205" y="1630" as="sourcePoint" />
            <mxPoint x="980" y="1630" as="targetPoint" />
          </mxGeometry>
        </mxCell>
        <mxCell id="WFIimTjjh8RcCPIJt9Wq-101" value="loop" style="shape=umlFrame;whiteSpace=wrap;html=1;" vertex="1" parent="1">
          <mxGeometry x="890" y="835" width="590" height="765" as="geometry" />
        </mxCell>
        <mxCell id="WFIimTjjh8RcCPIJt9Wq-102" value="[while valid]" style="text;html=1;strokeColor=none;fillColor=none;align=center;verticalAlign=middle;whiteSpace=wrap;rounded=0;" vertex="1" parent="1">
          <mxGeometry x="890" y="865" width="70" height="30" as="geometry" />
        </mxCell>
        <mxCell id="WFIimTjjh8RcCPIJt9Wq-103" value="main()" style="html=1;verticalAlign=bottom;endArrow=block;rounded=0;" edge="1" parent="1">
          <mxGeometry x="-0.2857" width="80" relative="1" as="geometry">
            <mxPoint x="1225" y="620" as="sourcePoint" />
            <mxPoint x="1225" y="640" as="targetPoint" />
            <Array as="points">
              <mxPoint x="1250" y="620" />
              <mxPoint x="1250" y="640" />
            </Array>
            <mxPoint as="offset" />
          </mxGeometry>
        </mxCell>
        <mxCell id="WFIimTjjh8RcCPIJt9Wq-104" value="Host()" style="html=1;verticalAlign=bottom;endArrow=block;rounded=0;" edge="1" parent="1">
          <mxGeometry x="-0.2857" width="80" relative="1" as="geometry">
            <mxPoint x="1225" y="660" as="sourcePoint" />
            <mxPoint x="1225" y="680.0000000000001" as="targetPoint" />
            <Array as="points">
              <mxPoint x="1250" y="660" />
              <mxPoint x="1250" y="680" />
            </Array>
            <mxPoint as="offset" />
          </mxGeometry>
        </mxCell>
        <mxCell id="WFIimTjjh8RcCPIJt9Wq-105" value="run()" style="html=1;verticalAlign=bottom;endArrow=block;rounded=0;" edge="1" parent="1">
          <mxGeometry x="-0.2789" width="80" relative="1" as="geometry">
            <mxPoint x="2025" y="700.0000000000001" as="sourcePoint" />
            <mxPoint x="2025" y="720.0000000000001" as="targetPoint" />
            <Array as="points">
              <mxPoint x="2050" y="700" />
              <mxPoint x="2050" y="720" />
            </Array>
            <mxPoint as="offset" />
          </mxGeometry>
        </mxCell>
        <mxCell id="WFIimTjjh8RcCPIJt9Wq-106" value="createSocket()" style="html=1;verticalAlign=bottom;endArrow=block;rounded=0;" edge="1" parent="1">
          <mxGeometry x="-0.2857" y="20" width="80" relative="1" as="geometry">
            <mxPoint x="2025" y="740.0000000000001" as="sourcePoint" />
            <mxPoint x="2025" y="760.0000000000001" as="targetPoint" />
            <Array as="points">
              <mxPoint x="2050" y="740" />
              <mxPoint x="2050" y="760" />
            </Array>
            <mxPoint as="offset" />
          </mxGeometry>
        </mxCell>
        <mxCell id="WFIimTjjh8RcCPIJt9Wq-107" value="main()" style="html=1;verticalAlign=bottom;endArrow=block;rounded=0;" edge="1" parent="1">
          <mxGeometry x="-0.2857" width="80" relative="1" as="geometry">
            <mxPoint x="2025" y="620" as="sourcePoint" />
            <mxPoint x="2025" y="640" as="targetPoint" />
            <Array as="points">
              <mxPoint x="2050" y="620" />
              <mxPoint x="2050" y="640" />
            </Array>
            <mxPoint as="offset" />
          </mxGeometry>
        </mxCell>
        <mxCell id="WFIimTjjh8RcCPIJt9Wq-108" value="Server()" style="html=1;verticalAlign=bottom;endArrow=block;rounded=0;" edge="1" parent="1">
          <mxGeometry x="-0.2857" width="80" relative="1" as="geometry">
            <mxPoint x="2025" y="660" as="sourcePoint" />
            <mxPoint x="2025" y="680.0000000000001" as="targetPoint" />
            <Array as="points">
              <mxPoint x="2050" y="660" />
              <mxPoint x="2050" y="680" />
            </Array>
            <mxPoint as="offset" />
          </mxGeometry>
        </mxCell>
        <mxCell id="WFIimTjjh8RcCPIJt9Wq-112" value="close()" style="html=1;verticalAlign=bottom;endArrow=block;rounded=0;" edge="1" parent="1">
          <mxGeometry width="80" relative="1" as="geometry">
            <mxPoint x="1225" y="1630.0000000000002" as="sourcePoint" />
            <mxPoint x="1510" y="1630" as="targetPoint" />
          </mxGeometry>
        </mxCell>
        <mxCell id="WFIimTjjh8RcCPIJt9Wq-113" value=":DatagramSocket" style="html=1;" vertex="1" parent="1">
          <mxGeometry x="1620" y="750" width="110" height="50" as="geometry" />
        </mxCell>
        <mxCell id="WFIimTjjh8RcCPIJt9Wq-114" value="" style="rounded=0;whiteSpace=wrap;html=1;" vertex="1" parent="1">
          <mxGeometry x="1665" y="1150" width="20" height="510" as="geometry" />
        </mxCell>
        <mxCell id="WFIimTjjh8RcCPIJt9Wq-115" value="" style="endArrow=none;html=1;rounded=0;" edge="1" parent="1" source="WFIimTjjh8RcCPIJt9Wq-114">
          <mxGeometry width="50" height="50" relative="1" as="geometry">
            <mxPoint x="2240" y="860" as="sourcePoint" />
            <mxPoint x="1675" y="1700" as="targetPoint" />
          </mxGeometry>
        </mxCell>
        <mxCell id="WFIimTjjh8RcCPIJt9Wq-116" value="" style="endArrow=none;html=1;rounded=0;" edge="1" parent="1" source="WFIimTjjh8RcCPIJt9Wq-114" target="WFIimTjjh8RcCPIJt9Wq-113">
          <mxGeometry width="50" height="50" relative="1" as="geometry">
            <mxPoint x="1555" y="850" as="sourcePoint" />
            <mxPoint x="1555" y="810" as="targetPoint" />
          </mxGeometry>
        </mxCell>
        <mxCell id="WFIimTjjh8RcCPIJt9Wq-117" value="«create»" style="endArrow=open;endSize=12;dashed=1;html=1;rounded=0;entryX=1;entryY=0.5;entryDx=0;entryDy=0;" edge="1" parent="1" target="WFIimTjjh8RcCPIJt9Wq-113">
          <mxGeometry x="0.0303" y="10" width="160" relative="1" as="geometry">
            <mxPoint x="2000" y="775" as="sourcePoint" />
            <mxPoint x="1830" y="774.5" as="targetPoint" />
            <mxPoint as="offset" />
          </mxGeometry>
        </mxCell>
        <mxCell id="WFIimTjjh8RcCPIJt9Wq-118" value="«send/receive»&lt;br&gt;Port 69" style="endArrow=open;endSize=12;dashed=1;html=1;rounded=0;" edge="1" parent="1">
          <mxGeometry x="0.04" y="20" width="160" relative="1" as="geometry">
            <mxPoint x="1535" y="1169.7999999999997" as="sourcePoint" />
            <mxPoint x="1660" y="1169.7999999999997" as="targetPoint" />
            <mxPoint as="offset" />
          </mxGeometry>
        </mxCell>
        <mxCell id="WFIimTjjh8RcCPIJt9Wq-119" value="«send/receive»&lt;br&gt;Port 69" style="endArrow=open;endSize=12;dashed=1;html=1;rounded=0;" edge="1" parent="1">
          <mxGeometry x="0.04" y="20" width="160" relative="1" as="geometry">
            <mxPoint x="1665" y="1360.0799999999997" as="sourcePoint" />
            <mxPoint x="1540" y="1360.0799999999997" as="targetPoint" />
            <mxPoint as="offset" />
          </mxGeometry>
        </mxCell>
        <mxCell id="WFIimTjjh8RcCPIJt9Wq-120" value="sendPacket()" style="html=1;verticalAlign=bottom;endArrow=block;rounded=0;" edge="1" parent="1">
          <mxGeometry x="-0.2857" y="20" width="80" relative="1" as="geometry">
            <mxPoint x="2025" y="1230" as="sourcePoint" />
            <mxPoint x="2025" y="1250" as="targetPoint" />
            <Array as="points">
              <mxPoint x="2050" y="1230" />
              <mxPoint x="2050" y="1250" />
            </Array>
            <mxPoint as="offset" />
          </mxGeometry>
        </mxCell>
        <mxCell id="WFIimTjjh8RcCPIJt9Wq-121" value="createSocket()" style="html=1;verticalAlign=bottom;endArrow=block;rounded=0;" edge="1" parent="1">
          <mxGeometry x="-0.2857" y="20" width="80" relative="1" as="geometry">
            <mxPoint x="2025" y="1350" as="sourcePoint" />
            <mxPoint x="2025" y="1370" as="targetPoint" />
            <Array as="points">
              <mxPoint x="2050" y="1350" />
              <mxPoint x="2050" y="1370" />
            </Array>
            <mxPoint as="offset" />
          </mxGeometry>
        </mxCell>
        <mxCell id="WFIimTjjh8RcCPIJt9Wq-122" value="receivePacket()" style="html=1;verticalAlign=bottom;endArrow=block;rounded=0;" edge="1" parent="1">
          <mxGeometry x="-0.2857" y="20" width="80" relative="1" as="geometry">
            <mxPoint x="2025" y="1060" as="sourcePoint" />
            <mxPoint x="2025" y="1080" as="targetPoint" />
            <Array as="points">
              <mxPoint x="2050" y="1060" />
              <mxPoint x="2050" y="1080" />
            </Array>
            <mxPoint as="offset" />
          </mxGeometry>
        </mxCell>
        <mxCell id="WFIimTjjh8RcCPIJt9Wq-123" value="receive()" style="html=1;verticalAlign=bottom;endArrow=block;rounded=0;" edge="1" parent="1">
          <mxGeometry x="-0.0037" width="80" relative="1" as="geometry">
            <mxPoint x="1685" y="1169.7599999999998" as="sourcePoint" />
            <mxPoint x="1870" y="1170" as="targetPoint" />
            <mxPoint as="offset" />
          </mxGeometry>
        </mxCell>
        <mxCell id="WFIimTjjh8RcCPIJt9Wq-124" value="printPacketContent()" style="html=1;verticalAlign=bottom;endArrow=block;rounded=0;" edge="1" parent="1">
          <mxGeometry x="-0.2857" y="30" width="80" relative="1" as="geometry">
            <mxPoint x="2025" y="1180.5" as="sourcePoint" />
            <mxPoint x="2025" y="1200.5" as="targetPoint" />
            <Array as="points">
              <mxPoint x="2050" y="1180.5" />
              <mxPoint x="2050" y="1200.5" />
            </Array>
            <mxPoint y="-1" as="offset" />
          </mxGeometry>
        </mxCell>
        <mxCell id="WFIimTjjh8RcCPIJt9Wq-125" value="verifyMessage()" style="html=1;verticalAlign=bottom;endArrow=block;rounded=0;" edge="1" parent="1">
          <mxGeometry x="-0.2857" y="20" width="80" relative="1" as="geometry">
            <mxPoint x="2025" y="1270" as="sourcePoint" />
            <mxPoint x="2025" y="1290" as="targetPoint" />
            <Array as="points">
              <mxPoint x="2050" y="1270" />
              <mxPoint x="2050" y="1290" />
            </Array>
            <mxPoint as="offset" />
          </mxGeometry>
        </mxCell>
        <mxCell id="WFIimTjjh8RcCPIJt9Wq-126" value=":DatagramPacket" style="html=1;" vertex="1" parent="1">
          <mxGeometry x="1830" y="1070" width="110" height="50" as="geometry" />
        </mxCell>
        <mxCell id="WFIimTjjh8RcCPIJt9Wq-127" value="" style="endArrow=none;html=1;rounded=0;" edge="1" parent="1" source="WFIimTjjh8RcCPIJt9Wq-128" target="WFIimTjjh8RcCPIJt9Wq-126">
          <mxGeometry width="50" height="50" relative="1" as="geometry">
            <mxPoint x="1885" y="1240" as="sourcePoint" />
            <mxPoint x="2500" y="1130" as="targetPoint" />
          </mxGeometry>
        </mxCell>
        <mxCell id="WFIimTjjh8RcCPIJt9Wq-128" value="" style="rounded=0;whiteSpace=wrap;html=1;" vertex="1" parent="1">
          <mxGeometry x="1875" y="1160" width="20" height="21" as="geometry" />
        </mxCell>
        <mxCell id="WFIimTjjh8RcCPIJt9Wq-129" value="" style="endArrow=none;html=1;rounded=0;" edge="1" parent="1" source="WFIimTjjh8RcCPIJt9Wq-128">
          <mxGeometry width="50" height="50" relative="1" as="geometry">
            <mxPoint x="2450" y="1180" as="sourcePoint" />
            <mxPoint x="1885" y="1211" as="targetPoint" />
          </mxGeometry>
        </mxCell>
        <mxCell id="WFIimTjjh8RcCPIJt9Wq-131" value="receive()" style="html=1;verticalAlign=bottom;endArrow=block;rounded=0;" edge="1" parent="1">
          <mxGeometry x="-0.0037" width="80" relative="1" as="geometry">
            <mxPoint x="1900" y="1170" as="sourcePoint" />
            <mxPoint x="2000" y="1170" as="targetPoint" />
            <mxPoint as="offset" />
          </mxGeometry>
        </mxCell>
        <mxCell id="WFIimTjjh8RcCPIJt9Wq-132" value="" style="endArrow=open;endSize=12;dashed=1;html=1;rounded=0;entryX=1.028;entryY=0.507;entryDx=0;entryDy=0;entryPerimeter=0;" edge="1" parent="1" target="WFIimTjjh8RcCPIJt9Wq-126">
          <mxGeometry x="-0.294" y="15" width="160" relative="1" as="geometry">
            <mxPoint x="2000" y="1095" as="sourcePoint" />
            <mxPoint x="1960" y="1094.75" as="targetPoint" />
            <mxPoint as="offset" />
          </mxGeometry>
        </mxCell>
        <mxCell id="WFIimTjjh8RcCPIJt9Wq-133" value="«create»" style="endArrow=open;endSize=12;dashed=1;html=1;rounded=0;entryX=1.028;entryY=0.507;entryDx=0;entryDy=0;entryPerimeter=0;" edge="1" target="WFIimTjjh8RcCPIJt9Wq-134" parent="1">
          <mxGeometry x="0.0573" y="15" width="160" relative="1" as="geometry">
            <mxPoint x="2000" y="1095" as="sourcePoint" />
            <mxPoint x="1960" y="1094.75" as="targetPoint" />
            <mxPoint as="offset" />
          </mxGeometry>
        </mxCell>
        <mxCell id="WFIimTjjh8RcCPIJt9Wq-134" value=":DatagramPacket" style="html=1;" vertex="1" parent="1">
          <mxGeometry x="1830" y="1070" width="110" height="50" as="geometry" />
        </mxCell>
        <mxCell id="WFIimTjjh8RcCPIJt9Wq-135" value="" style="endArrow=none;html=1;rounded=0;" edge="1" target="WFIimTjjh8RcCPIJt9Wq-134" parent="1">
          <mxGeometry width="50" height="50" relative="1" as="geometry">
            <mxPoint x="1885" y="1160" as="sourcePoint" />
            <mxPoint x="2500" y="1130" as="targetPoint" />
          </mxGeometry>
        </mxCell>
        <mxCell id="WFIimTjjh8RcCPIJt9Wq-136" value="" style="endArrow=none;html=1;rounded=0;exitX=0.5;exitY=1;exitDx=0;exitDy=0;" edge="1" parent="1" source="WFIimTjjh8RcCPIJt9Wq-140">
          <mxGeometry width="50" height="50" relative="1" as="geometry">
            <mxPoint x="1890" y="1560" as="sourcePoint" />
            <mxPoint x="1890" y="1560" as="targetPoint" />
          </mxGeometry>
        </mxCell>
        <mxCell id="WFIimTjjh8RcCPIJt9Wq-137" value="«create»" style="endArrow=open;endSize=12;dashed=1;html=1;rounded=0;entryX=1.028;entryY=0.507;entryDx=0;entryDy=0;entryPerimeter=0;" edge="1" parent="1" target="WFIimTjjh8RcCPIJt9Wq-138">
          <mxGeometry x="-0.1184" y="15" width="160" relative="1" as="geometry">
            <mxPoint x="2005" y="1305" as="sourcePoint" />
            <mxPoint x="1965" y="1304.75" as="targetPoint" />
            <mxPoint as="offset" />
          </mxGeometry>
        </mxCell>
        <mxCell id="WFIimTjjh8RcCPIJt9Wq-138" value=":DatagramPacket" style="html=1;" vertex="1" parent="1">
          <mxGeometry x="1835" y="1280" width="110" height="50" as="geometry" />
        </mxCell>
        <mxCell id="WFIimTjjh8RcCPIJt9Wq-139" value="" style="endArrow=none;html=1;rounded=0;" edge="1" parent="1" target="WFIimTjjh8RcCPIJt9Wq-138" source="WFIimTjjh8RcCPIJt9Wq-140">
          <mxGeometry width="50" height="50" relative="1" as="geometry">
            <mxPoint x="1890" y="1370" as="sourcePoint" />
            <mxPoint x="2505" y="1340" as="targetPoint" />
          </mxGeometry>
        </mxCell>
        <mxCell id="WFIimTjjh8RcCPIJt9Wq-140" value="" style="rounded=0;whiteSpace=wrap;html=1;" vertex="1" parent="1">
          <mxGeometry x="1880" y="1509" width="20" height="21" as="geometry" />
        </mxCell>
        <mxCell id="WFIimTjjh8RcCPIJt9Wq-141" value=":DatagramSocket" style="html=1;" vertex="1" parent="1">
          <mxGeometry x="1710" y="1420" width="110" height="50" as="geometry" />
        </mxCell>
        <mxCell id="WFIimTjjh8RcCPIJt9Wq-142" value="" style="rounded=0;whiteSpace=wrap;html=1;" vertex="1" parent="1">
          <mxGeometry x="1755" y="1510" width="20" height="80" as="geometry" />
        </mxCell>
        <mxCell id="WFIimTjjh8RcCPIJt9Wq-143" value="" style="endArrow=none;html=1;rounded=0;" edge="1" parent="1" source="WFIimTjjh8RcCPIJt9Wq-142">
          <mxGeometry width="50" height="50" relative="1" as="geometry">
            <mxPoint x="2330" y="1515" as="sourcePoint" />
            <mxPoint x="1765" y="1620" as="targetPoint" />
          </mxGeometry>
        </mxCell>
        <mxCell id="WFIimTjjh8RcCPIJt9Wq-144" value="" style="endArrow=none;html=1;rounded=0;" edge="1" parent="1" source="WFIimTjjh8RcCPIJt9Wq-142" target="WFIimTjjh8RcCPIJt9Wq-141">
          <mxGeometry width="50" height="50" relative="1" as="geometry">
            <mxPoint x="1645" y="1505" as="sourcePoint" />
            <mxPoint x="1645" y="1465" as="targetPoint" />
          </mxGeometry>
        </mxCell>
        <mxCell id="WFIimTjjh8RcCPIJt9Wq-145" value="«create»" style="endArrow=open;endSize=12;dashed=1;html=1;rounded=0;entryX=1.028;entryY=0.507;entryDx=0;entryDy=0;entryPerimeter=0;" edge="1" parent="1">
          <mxGeometry x="-0.1184" y="15" width="160" relative="1" as="geometry">
            <mxPoint x="2000" y="1450" as="sourcePoint" />
            <mxPoint x="1820" y="1449.9299999999998" as="targetPoint" />
            <mxPoint as="offset" />
          </mxGeometry>
        </mxCell>
        <mxCell id="WFIimTjjh8RcCPIJt9Wq-147" value="send()" style="html=1;verticalAlign=bottom;endArrow=block;rounded=0;" edge="1" parent="1">
          <mxGeometry x="-0.0037" width="80" relative="1" as="geometry">
            <mxPoint x="2005" y="1519.08" as="sourcePoint" />
            <mxPoint x="1905" y="1519.08" as="targetPoint" />
            <mxPoint as="offset" />
          </mxGeometry>
        </mxCell>
        <mxCell id="WFIimTjjh8RcCPIJt9Wq-148" value="send()" style="html=1;verticalAlign=bottom;endArrow=block;rounded=0;" edge="1" parent="1">
          <mxGeometry x="-0.0037" width="80" relative="1" as="geometry">
            <mxPoint x="1880" y="1519.08" as="sourcePoint" />
            <mxPoint x="1780" y="1519.08" as="targetPoint" />
            <mxPoint as="offset" />
          </mxGeometry>
        </mxCell>
        <mxCell id="WFIimTjjh8RcCPIJt9Wq-149" value="«send/receive»&lt;br&gt;Port 69" style="endArrow=open;endSize=12;dashed=1;html=1;rounded=0;" edge="1" parent="1">
          <mxGeometry x="-0.2085" y="21" width="160" relative="1" as="geometry">
            <mxPoint x="1755" y="1519.0799999999997" as="sourcePoint" />
            <mxPoint x="1540" y="1520" as="targetPoint" />
            <mxPoint as="offset" />
          </mxGeometry>
        </mxCell>
        <mxCell id="WFIimTjjh8RcCPIJt9Wq-150" value="printPacketContent()" style="html=1;verticalAlign=bottom;endArrow=block;rounded=0;" edge="1" parent="1">
          <mxGeometry x="-0.2857" y="30" width="80" relative="1" as="geometry">
            <mxPoint x="2025" y="1531" as="sourcePoint" />
            <mxPoint x="2025" y="1551" as="targetPoint" />
            <Array as="points">
              <mxPoint x="2050" y="1531" />
              <mxPoint x="2050" y="1551" />
            </Array>
            <mxPoint y="-1" as="offset" />
          </mxGeometry>
        </mxCell>
        <mxCell id="WFIimTjjh8RcCPIJt9Wq-151" value="close()" style="html=1;verticalAlign=bottom;endArrow=block;rounded=0;" edge="1" parent="1">
          <mxGeometry x="-0.0037" width="80" relative="1" as="geometry">
            <mxPoint x="2005" y="1580" as="sourcePoint" />
            <mxPoint x="1780" y="1580" as="targetPoint" />
            <mxPoint as="offset" />
          </mxGeometry>
        </mxCell>
        <mxCell id="WFIimTjjh8RcCPIJt9Wq-152" value="close()" style="html=1;verticalAlign=bottom;endArrow=block;rounded=0;" edge="1" parent="1">
          <mxGeometry x="-0.0037" width="80" relative="1" as="geometry">
            <mxPoint x="2005" y="1649.17" as="sourcePoint" />
            <mxPoint x="1690" y="1649.17" as="targetPoint" />
            <mxPoint as="offset" />
          </mxGeometry>
        </mxCell>
        <mxCell id="WFIimTjjh8RcCPIJt9Wq-153" value="loop" style="shape=umlFrame;whiteSpace=wrap;html=1;" vertex="1" parent="1">
          <mxGeometry x="1595" y="860" width="555" height="765" as="geometry" />
        </mxCell>
        <mxCell id="WFIimTjjh8RcCPIJt9Wq-154" value="[while valid]" style="text;html=1;strokeColor=none;fillColor=none;align=center;verticalAlign=middle;whiteSpace=wrap;rounded=0;" vertex="1" parent="1">
          <mxGeometry x="1595" y="890" width="70" height="30" as="geometry" />
        </mxCell>
      </root>
    </mxGraphModel>
  </diagram>
</mxfile>
